<?xml version="1.0" standalone="no"?>
<!DOCTYPE svg PUBLIC "-//W3C//DTD SVG 20010904//EN"
 "http://www.w3.org/TR/2001/REC-SVG-20010904/DTD/svg10.dtd">
<svg version="1.0" xmlns="http://www.w3.org/2000/svg"
 width="300.000000pt" height="300.000000pt" viewBox="0 0 300.000000 300.000000"
 preserveAspectRatio="xMidYMid meet">
<metadata>
Created by potrace 1.10, written by Peter Selinger 2001-2011
</metadata>
<g transform="translate(0.000000,300.000000) scale(0.100000,-0.100000)"
fill="#000000" stroke="none">
<path d="M1105 2543 c-48 -11 -156 -56 -201 -85 -95 -59 -188 -170 -231 -273
-42 -100 -55 -237 -32 -335 29 -128 137 -269 244 -319 28 -13 59 -28 70 -34
27 -14 195 -23 195 -9 0 5 9 12 21 15 15 4 20 12 17 28 -2 18 -23 33 -88 66
-149 75 -220 176 -220 312 0 129 63 231 185 298 45 25 60 28 145 28 85 0 101
-4 153 -30 70 -35 165 -132 189 -193 19 -48 22 -47 -79 -28 -86 16 -103 9
-105 -45 -1 -43 38 -116 79 -149 l27 -21 -17 -82 c-9 -45 -17 -94 -17 -110 0
-19 -7 -30 -22 -36 -28 -11 -119 -36 -213 -60 -81 -20 -252 -75 -304 -99 -65
-29 -149 -105 -175 -159 -10 -21 -22 -46 -27 -55 -23 -46 2 -105 40 -95 17 4
21 1 21 -18 0 -55 -15 -89 -61 -137 -26 -27 -50 -62 -53 -76 -3 -15 -18 -101
-32 -191 l-27 -165 23 -18 c16 -13 39 -18 89 -18 36 0 76 3 89 6 27 8 37 40
23 76 -8 21 -3 38 37 108 44 77 52 86 117 122 39 22 90 59 115 84 43 42 70 55
70 35 0 -10 -50 -54 -110 -95 -38 -26 -41 -32 -36 -59 3 -17 12 -38 19 -46 8
-9 40 -58 72 -109 31 -51 68 -100 82 -109 31 -21 130 -19 154 3 32 29 0 98
-53 112 -23 6 -43 24 -71 65 l-39 57 49 53 c26 29 64 74 83 99 19 26 43 49 53
52 26 7 55 -26 62 -71 7 -40 45 -200 70 -292 8 -29 22 -62 31 -72 22 -24 90
-33 142 -20 53 15 64 45 33 94 -25 41 -26 82 -6 219 22 145 22 144 76 178 57
35 67 32 118 -25 42 -49 42 -58 -15 -180 -22 -48 -39 -67 -80 -91 -40 -24 -10
-154 36 -154 28 0 109 78 138 134 31 59 66 142 88 204 13 40 13 47 -5 85 -10
23 -44 67 -75 97 -55 53 -70 91 -47 115 39 42 49 230 15 314 -20 50 -13 61 25
38 70 -41 148 -5 199 91 33 65 -1 125 -150 267 -105 99 -106 101 -123 170 -20
81 -73 197 -116 252 -83 106 -163 174 -264 224 -55 27 -124 53 -154 59 -53 10
-207 12 -246 3z m238 -38 c137 -29 283 -120 373 -233 60 -75 121 -202 136
-282 l12 -65 124 -119 c68 -66 130 -133 138 -149 21 -40 10 -80 -35 -128 -46
-47 -89 -53 -124 -16 -19 20 -91 47 -126 47 -6 0 1 -16 14 -36 35 -52 65 -139
72 -208 6 -66 -20 -165 -58 -217 l-19 -26 47 -42 c26 -22 64 -62 86 -88 49
-59 47 -77 -18 -227 -37 -83 -60 -120 -98 -158 -27 -27 -53 -46 -57 -41 -4 4
-10 32 -14 61 l-7 52 33 -2 c32 -3 32 -3 85 117 28 66 52 122 52 125 1 6 -62
72 -112 119 l-36 34 -34 -30 c-18 -16 -47 -35 -65 -42 -37 -16 -36 -11 -61
-183 -28 -180 -27 -192 9 -238 17 -21 30 -41 30 -44 0 -3 -35 -6 -78 -6 l-78
0 -52 218 c-29 119 -52 223 -52 230 0 8 -18 12 -57 12 l-58 0 -39 -60 c-21
-34 -66 -85 -98 -115 l-60 -54 58 -84 c50 -74 61 -84 86 -83 22 1 33 -6 49
-32 l21 -32 -70 0 -70 0 -85 132 -86 133 55 29 c51 27 132 104 155 148 9 16 5
18 -47 18 -56 0 -58 -1 -123 -62 -36 -35 -94 -78 -128 -96 -59 -31 -65 -38
-119 -132 l-56 -100 22 -35 22 -35 -92 0 c-91 0 -92 0 -87 22 3 13 18 100 33
193 l27 170 39 28 c52 37 70 83 76 197 l4 95 -29 -40 c-16 -22 -37 -46 -47
-54 -16 -13 -17 -12 -11 15 14 60 54 133 95 173 74 72 118 88 616 227 l52 15
4 87 c3 61 10 99 25 126 l20 39 -41 32 c-40 31 -88 98 -101 144 -6 21 -5 23
11 17 14 -6 224 -44 252 -46 4 0 2 -60 -2 -60 -2 0 -39 7 -82 15 -43 8 -79 13
-81 11 -7 -7 63 -56 96 -67 17 -6 30 -14 28 -18 -62 -115 -82 -212 -58 -284 7
-21 50 -77 101 -132 107 -115 130 -168 110 -258 -6 -28 -18 -62 -26 -75 -27
-41 -8 -35 30 10 85 98 116 223 82 325 -9 26 -43 95 -76 153 -44 76 -60 115
-60 142 l0 37 38 -39 c33 -35 50 -43 145 -68 65 -18 113 -36 121 -47 12 -16
14 -16 34 10 12 15 22 35 22 43 0 15 -154 173 -242 250 -30 26 -38 40 -38 66
0 100 -90 269 -196 365 -75 69 -198 128 -295 142 -150 22 -311 -28 -415 -129
-105 -99 -147 -200 -148 -347 0 -118 21 -184 86 -266 50 -64 60 -58 14 10 -69
102 -76 266 -17 386 63 128 184 220 325 246 182 33 399 -85 490 -268 26 -51
36 -92 24 -93 -48 -2 -54 1 -77 53 -35 75 -133 170 -217 209 -59 28 -79 32
-149 32 -104 -1 -176 -28 -250 -96 -141 -129 -161 -333 -47 -483 48 -63 131
-121 204 -143 32 -9 58 -20 58 -24 0 -14 -109 -20 -166 -8 -219 45 -371 256
-350 485 31 337 348 570 679 500z m30 -116 c188 -63 343 -239 378 -429 7 -36
18 -72 25 -80 23 -29 21 -45 -8 -62 -36 -23 -35 -40 3 -72 35 -30 58 -32 101
-10 l31 16 58 -58 c55 -55 70 -84 38 -76 -139 35 -196 56 -231 83 -45 36 -73
32 -81 -10 -10 -47 2 -82 58 -177 48 -80 85 -178 85 -224 0 -29 -23 -95 -28
-80 -21 65 -61 128 -130 203 -112 123 -125 184 -66 314 13 28 24 63 24 77 0
15 8 30 19 35 22 12 33 58 20 83 -7 13 -5 25 7 43 40 61 -40 209 -166 307 -98
77 -176 103 -305 102 -118 -1 -188 -23 -275 -86 l-55 -40 45 44 c25 25 61 53
80 63 111 58 261 72 373 34z m482 -609 c23 -19 6 -33 -32 -27 -37 6 -63 23
-63 40 0 13 76 3 95 -13z"/>
<path d="M1488 1459 c-8 -5 -82 -27 -164 -50 -200 -55 -300 -87 -355 -115 -46
-23 -99 -74 -100 -97 -8 -207 -31 -292 -90 -346 -28 -26 -34 -42 -55 -143 -25
-123 -28 -141 -15 -118 114 214 110 208 185 247 128 67 266 231 266 318 0 39
18 29 25 -14 5 -33 -3 -88 -21 -134 -3 -9 29 -12 125 -12 l129 0 11 50 c17 74
28 87 36 39 3 -21 24 -120 45 -219 21 -99 43 -200 48 -225 l9 -45 7 75 c20
202 35 273 77 360 70 144 64 195 -36 300 -35 36 -74 81 -87 101 -18 27 -28 35
-40 28z m139 -196 c48 -70 47 -107 -5 -220 -22 -48 -46 -113 -53 -143 -11 -49
-13 -52 -21 -30 -5 14 -18 61 -28 105 -21 96 -33 127 -54 144 -13 11 -19 9
-40 -14 -14 -15 -22 -33 -20 -40 8 -19 -51 -34 -117 -31 -31 2 -61 6 -67 10
-6 4 -8 26 -6 54 4 39 1 52 -18 74 -13 16 -28 25 -34 20 -6 -4 -30 -44 -53
-89 -49 -95 -122 -171 -210 -221 -65 -36 -72 -32 -42 26 23 45 41 136 41 207
0 134 24 147 515 283 l70 20 53 -52 c29 -28 69 -74 89 -103z"/>
</g>
</svg>
